<svg id="Layer_1" data-name="Layer 1" xmlns="http://www.w3.org/2000/svg" viewBox="0 0 228.66 39.08"><defs><style>.cls-1{fill:#f02349;}</style></defs><title>navbar-logo</title><path class="cls-1" d="M31.42,3.62c.06-.21.31-.37.74-.47A4.58,4.58,0,0,1,33.56,3a5.59,5.59,0,0,1,1.35.24c.4.14.61.33.61.57V10.1a10.44,10.44,0,0,1,1.95-4A3.62,3.62,0,0,1,40.69,5a4.89,4.89,0,0,1,2.52.9A5.86,5.86,0,0,1,44.92,8a12.26,12.26,0,0,1,1,3.15,26.52,26.52,0,0,1,.45,4,37.42,37.42,0,0,1,1.17-4.72,16.94,16.94,0,0,1,1.73-3.87,6.87,6.87,0,0,1,2.38-2.41,4.36,4.36,0,0,1,3.22-.38A3.12,3.12,0,0,1,57,5.31a8.67,8.67,0,0,1,1,3.06,21.47,21.47,0,0,1,.23,4.05c0,1.48-.12,3-.23,4.52s-.21,3-.31,4.46-.15,2.73-.14,3.87A10.55,10.55,0,0,0,57.88,28c.21.71.6,1.09,1.17,1.15.27,0,.41.17.41.41s-.14.37-.41.4a4.73,4.73,0,0,1-3.33-.83,6,6,0,0,1-1.84-2.66,13.42,13.42,0,0,1-.77-3.89,40.35,40.35,0,0,1,0-4.54c.07-1.56.18-3.1.31-4.62s.23-2.88.27-4.09a15.27,15.27,0,0,0-.13-3c-.14-.79-.44-1.23-.92-1.32-.69-.12-1.37.33-2,1.37a18.3,18.3,0,0,0-1.87,4.66,77.82,77.82,0,0,0-1.66,7.62q-.8,4.53-1.42,10.2c0,.21-.24.34-.72.4a6.39,6.39,0,0,1-1.57,0,8.51,8.51,0,0,1-1.56-.36c-.46-.17-.69-.35-.69-.56q0-1.26.15-3.36c.11-1.39.22-2.9.34-4.52s.23-3.26.32-4.93a43.59,43.59,0,0,0,0-4.56,15.74,15.74,0,0,0-.52-3.45c-.27-.91-.69-1.43-1.26-1.55A2.17,2.17,0,0,0,37.81,7a11.28,11.28,0,0,0-1.44,3.65,39.91,39.91,0,0,0-.83,5.13c-.2,1.89-.35,3.72-.47,5.51s-.25,3.39-.39,4.81a9.85,9.85,0,0,1-.6,3c-.12.27-.45.45-1,.56a7.25,7.25,0,0,1-1.69.11,8.69,8.69,0,0,1-1.62-.22c-.5-.12-.76-.3-.79-.54a9.89,9.89,0,0,1,0-1.4c0-.75.08-1.67.16-2.77s.17-2.33.29-3.71.24-2.8.36-4.25.26-2.9.41-4.32.29-2.75.42-4,.27-2.27.41-3.15A12.16,12.16,0,0,1,31.42,3.62ZM33.27,5q-.18,1.44-.39,3.42c-.13,1.32-.26,2.71-.38,4.18s-.22,3-.31,4.48-.18,2.95-.27,4.3S31.76,24,31.71,25s-.06,1.86-.06,2.43a21.73,21.73,0,0,0,.49-2.68c.15-1.13.28-2.36.38-3.71s.21-2.79.3-4.3.16-3,.22-4.43.11-2.79.14-4.05S33.24,5.92,33.27,5ZM43.44,8.93a18.66,18.66,0,0,1,.47,3.85c0,1.48,0,3.05,0,4.7s-.15,3.3-.25,4.95-.16,3.18-.16,4.59c.12-.54.26-1.27.41-2.18s.28-1.93.4-3,.2-2.28.25-3.51,0-2.42,0-3.58a26.53,26.53,0,0,0-.32-3.24A8.36,8.36,0,0,0,43.44,8.93Zm12.33-1a30.19,30.19,0,0,1-.14,3.51c-.12,1.35-.22,2.75-.31,4.21s-.15,2.92-.18,4.41a22.4,22.4,0,0,0,.27,4.12c0-1.17.1-2.47.22-3.9s.23-2.86.32-4.32.13-2.87.13-4.25A21,21,0,0,0,55.77,7.94Z"/><path class="cls-1" d="M74,15.37a1.64,1.64,0,0,1,.86-1,3.46,3.46,0,0,1,1.46-.4,3.24,3.24,0,0,1,1.46.24,1.43,1.43,0,0,1,.86,1,11.84,11.84,0,0,1,.29,2.5c0,.91,0,1.84-.09,2.77s-.17,1.83-.27,2.7-.2,1.65-.27,2.36a11.58,11.58,0,0,0-.09,1.75c0,.47.11.73.29.79s.66,0,1.08-.43a8.33,8.33,0,0,0,1.28-1.66,17.19,17.19,0,0,0,1.22-2.43A18.67,18.67,0,0,0,83,20.77c.09-.27.24-.4.47-.39s.29.19.2.52c-.21.78-.49,1.66-.83,2.63a15.71,15.71,0,0,1-1.28,2.75,9.6,9.6,0,0,1-1.76,2.18,3.19,3.19,0,0,1-2.2.9A3.11,3.11,0,0,1,74.87,28a8.33,8.33,0,0,1-1.35-3.44A18.8,18.8,0,0,1,73.29,20,26.27,26.27,0,0,1,74,15.37Zm2.43-6.62a1.1,1.1,0,0,1,.79.29,1.33,1.33,0,0,1,.36.68,1.05,1.05,0,0,1-.16.74,1.18,1.18,0,0,1-.76.5.85.85,0,0,1-.86-.18,1.23,1.23,0,0,1-.36-.77,1.36,1.36,0,0,1,.2-.85A.87.87,0,0,1,76.42,8.75Zm-.09,7.07a25.87,25.87,0,0,0-.72,5A17.45,17.45,0,0,0,76,25.58c.09-.69.17-1.45.25-2.29s.14-1.7.2-2.57.08-1.73.07-2.59A22.05,22.05,0,0,0,76.33,15.82Z"/><path class="cls-1" d="M90.6,16.09c0,.36-.08.57-.32.63s-.37-.08-.4-.41A2.58,2.58,0,0,0,89.4,15a1.73,1.73,0,0,0-.87-.65,1.77,1.77,0,0,0-1,0,1.37,1.37,0,0,0-.78.49,1.53,1.53,0,0,0-.14,1.58,15.06,15.06,0,0,0,1,2.11c.45.78.94,1.61,1.48,2.5a12.59,12.59,0,0,1,1.26,2.72,15.08,15.08,0,0,0,2.3-1.21,4.51,4.51,0,0,0,1.57-1.71c.15-.3.32-.42.52-.34s.25.23.16.47A5.07,5.07,0,0,1,93.21,23,13.72,13.72,0,0,1,90.6,24.5a11.45,11.45,0,0,1,.11,1.15,5.76,5.76,0,0,1-.07,1.1,3.55,3.55,0,0,1-1.53,2.32,6.47,6.47,0,0,1-2.63,1.1A4.07,4.07,0,0,1,84,29.88,1.78,1.78,0,0,1,83,28a1.83,1.83,0,0,1,.72-1.33,8,8,0,0,1,1.71-1.06A15.29,15.29,0,0,0,84.41,24a17.27,17.27,0,0,1-1.15-1.69,11.59,11.59,0,0,1-.92-1.91A6,6,0,0,1,82,18.25a4.42,4.42,0,0,1,.65-2.43,5.44,5.44,0,0,1,1.6-1.67,5.71,5.71,0,0,1,2-.85,4.51,4.51,0,0,1,2.07,0,3.17,3.17,0,0,1,1.6.92A2.78,2.78,0,0,1,90.6,16.09ZM86.14,27.43a7.11,7.11,0,0,0-.27-1.08,6.14,6.14,0,0,0-1.24.65,1.28,1.28,0,0,0-.56.74.8.8,0,0,0,.2.86,1.08,1.08,0,0,0,.77.24,1.18,1.18,0,0,0,.79-.38A1.26,1.26,0,0,0,86.14,27.43ZM84.52,17.08a3.92,3.92,0,0,0,.18,2.49A12.79,12.79,0,0,0,86,21.91l1.53,2.25a5.57,5.57,0,0,1,.93,2.19,2.53,2.53,0,0,0-.25-1.87A26.63,26.63,0,0,0,86.91,22c-.51-.87-1-1.74-1.49-2.61A7.71,7.71,0,0,1,84.52,17.08Z"/><path class="cls-1" d="M117.51,17.93a.5.5,0,0,1-.59.43c-.3-.05-.42-.23-.36-.56a4.57,4.57,0,0,0-.13-2.66A1.88,1.88,0,0,0,114.67,14a2,2,0,0,0-1.75,1,8.66,8.66,0,0,0-1.24,2.68,16.55,16.55,0,0,0-.61,3.53,14.44,14.44,0,0,0,.16,3.58,7.17,7.17,0,0,0,1.06,2.81,2.59,2.59,0,0,0,2.07,1.24,3.46,3.46,0,0,0,2.18-.58,8,8,0,0,0,2-1.83,13.22,13.22,0,0,0,1.59-2.63,17.36,17.36,0,0,0,1.11-3c.09-.27.24-.4.47-.39s.29.19.2.52a18.94,18.94,0,0,1-1.19,3.49,12.61,12.61,0,0,1-2,3.06A8.63,8.63,0,0,1,116,29.54a7.13,7.13,0,0,1-3.62.63,6.6,6.6,0,0,1-4.16-1.6A7.25,7.25,0,0,1,106,25.15a10.19,10.19,0,0,1-.29-4.25A12.31,12.31,0,0,1,107,16.74a8.78,8.78,0,0,1,2.63-3.11,5.92,5.92,0,0,1,3.81-1.1,4.75,4.75,0,0,1,2.25.63A3.87,3.87,0,0,1,117,14.51a4.16,4.16,0,0,1,.57,1.73A5.17,5.17,0,0,1,117.51,17.93Zm-7.61-2a9,9,0,0,0-1.42,2.93,12.59,12.59,0,0,0-.49,3.28,9.44,9.44,0,0,0,.43,3,5,5,0,0,0,1.35,2.23,7.82,7.82,0,0,1-.84-2.5,16,16,0,0,1-.2-3,18.77,18.77,0,0,1,.36-3.15A15.44,15.44,0,0,1,109.9,16Z"/><path class="cls-1" d="M120.84,20.45a7.74,7.74,0,0,1,1.26-3,7.37,7.37,0,0,1,2.29-2.23,6.75,6.75,0,0,1,3-1,6.34,6.34,0,0,1,3.42.7,4.31,4.31,0,0,1,2.36,2.92,12.7,12.7,0,0,1,.11,4.86,9.59,9.59,0,0,1-.4,1.53,4.57,4.57,0,0,0,2-1.12,5.63,5.63,0,0,0,1.42-2.34c.09-.27.24-.4.47-.39s.29.19.2.52a6.19,6.19,0,0,1-1.89,3,5.52,5.52,0,0,1-2.52,1.2,7.56,7.56,0,0,1-2.77,3.33,5.89,5.89,0,0,1-8.68-2.5,6.62,6.62,0,0,1-.54-2.61A13.89,13.89,0,0,1,120.84,20.45Zm4.68-4.32A5.36,5.36,0,0,0,123.87,18a10.11,10.11,0,0,0-1.05,2.65,8.93,8.93,0,0,0-.25,3,6.83,6.83,0,0,0,.79,2.79,14.9,14.9,0,0,1,.11-5.53A11.61,11.61,0,0,1,125.52,16.13Zm5.58,9a4.72,4.72,0,0,1-2-.58,5.26,5.26,0,0,1-1.51-1.26,6,6,0,0,1-1-1.74,5.76,5.76,0,0,1-.36-2,14.27,14.27,0,0,0-.63,2.13,13.61,13.61,0,0,0-.34,2.75,6.5,6.5,0,0,0,.43,2.5,2,2,0,0,0,1.67,1.3,2.42,2.42,0,0,0,2.09-.72A7.17,7.17,0,0,0,131.1,25.13Zm-3.42-7.83a4.22,4.22,0,0,0-.55,2.23,5.36,5.36,0,0,0,.59,2.23,5.22,5.22,0,0,0,1.49,1.75,4.31,4.31,0,0,0,2.2.86c.09-.24.17-.5.25-.77s.14-.55.2-.85c.12-.72.21-1.44.27-2.14a10.45,10.45,0,0,0,0-1.94,4.41,4.41,0,0,0-.41-1.53,2.42,2.42,0,0,0-.85-1,1.87,1.87,0,0,0-1.78-.09A2.94,2.94,0,0,0,127.68,17.3Z"/><path class="cls-1" d="M142.88,15.59a3.32,3.32,0,0,1,.91.54,40.87,40.87,0,0,1,.6-5.22,22.74,22.74,0,0,1,1.28-4.52,8.22,8.22,0,0,1,2-3,3.07,3.07,0,0,1,2.72-.81,1.62,1.62,0,0,1,1.31,1.24,7,7,0,0,1,.11,2.7,24.94,24.94,0,0,1-.81,3.71c-.41,1.38-.88,2.81-1.42,4.28,0,1.8-.11,3.46-.25,5s-.23,2.87-.29,4a20.88,20.88,0,0,0,0,2.76c.06.71.25,1.12.58,1.24s.66,0,1.08-.45A8.44,8.44,0,0,0,152,25.38a15,15,0,0,0,1.1-2.27,14.7,14.7,0,0,0,.73-2.34c.05-.27.2-.39.42-.36s.31.19.25.49a17.13,17.13,0,0,1-.79,2.7,12.5,12.5,0,0,1-1.46,2.84,7.88,7.88,0,0,1-2.14,2.13,3.85,3.85,0,0,1-2.81.61A2.21,2.21,0,0,1,145.58,28a10.88,10.88,0,0,1-1.12-2.88,9,9,0,0,1-3.06,2.81,3.61,3.61,0,0,1-3.42-.07A4.19,4.19,0,0,1,136,25.76a7,7,0,0,1-.56-2.88,9.17,9.17,0,0,1,.61-3.08,8.17,8.17,0,0,1,1.58-2.66A5.79,5.79,0,0,1,140,15.55,4.2,4.2,0,0,1,142.88,15.59Zm-3.42,1.67a7.83,7.83,0,0,0-1.25,1.95,10.44,10.44,0,0,0-.73,2.28,8.19,8.19,0,0,0-.11,2.31,5.76,5.76,0,0,0,.61,2.1,8.8,8.8,0,0,1-.16-2,16.91,16.91,0,0,1,.23-2.41,16.65,16.65,0,0,1,.56-2.39A7,7,0,0,1,139.46,17.26ZM140.54,27c.46.15,1-.09,1.63-.72a14.21,14.21,0,0,0,2-2.66,31.84,31.84,0,0,1-.4-5.22,4.19,4.19,0,0,0-.36-1.44.93.93,0,0,0-.76-.58,1.3,1.3,0,0,0-1.15.69,7.23,7.23,0,0,0-.9,1.89,16,16,0,0,0-.61,2.5,18.31,18.31,0,0,0-.25,2.54,8.59,8.59,0,0,0,.18,2C140,26.56,140.24,26.89,140.54,27Zm6.67-17.69a33.34,33.34,0,0,0-.66,3.44c-.16,1.22-.27,2.44-.31,3.67s-.05,2.45,0,3.65a22.3,22.3,0,0,0,.34,3.33c0-.54.07-1.14.13-1.8s.12-1.52.18-2.57.11-2.35.16-3.91S147.14,11.6,147.21,9.29Zm3.19-5.58c-.15,0-.27.19-.36.56a9.52,9.52,0,0,0-.2,1.58c-.05.67-.09,1.46-.12,2.36s-.06,1.88-.09,2.93c.3-1,.57-2,.79-2.86a16.3,16.3,0,0,0,.45-2.34,5.27,5.27,0,0,0,0-1.6C150.8,4,150.64,3.74,150.4,3.71Z"/><path class="cls-1" d="M154,15.37a1.59,1.59,0,0,1,.85-1,3.5,3.5,0,0,1,1.46-.4,3.19,3.19,0,0,1,1.46.24,1.41,1.41,0,0,1,.86,1,11.22,11.22,0,0,1,.29,2.5,25.8,25.8,0,0,1-.09,2.77q-.1,1.39-.27,2.7c-.1.87-.19,1.65-.27,2.36a15,15,0,0,0-.09,1.75c0,.47.12.73.3.79s.65,0,1.08-.43a8.71,8.71,0,0,0,1.28-1.66A17.19,17.19,0,0,0,162,23.49a17.53,17.53,0,0,0,.88-2.72c.09-.27.25-.4.47-.39s.29.19.2.52c-.2.78-.48,1.66-.83,2.63a15,15,0,0,1-1.28,2.75,9.34,9.34,0,0,1-1.76,2.18,3.19,3.19,0,0,1-2.2.9A3.12,3.12,0,0,1,154.83,28a8.61,8.61,0,0,1-1.35-3.44,18.82,18.82,0,0,1-.22-4.57A24.54,24.54,0,0,1,154,15.37Zm2.42-6.62a1.08,1.08,0,0,1,.79.29,1.2,1.2,0,0,1,.36.68,1,1,0,0,1-.15.74,1.24,1.24,0,0,1-.77.5.85.85,0,0,1-.86-.18,1.23,1.23,0,0,1-.36-.77,1.37,1.37,0,0,1,.21-.85A.85.85,0,0,1,156.38,8.75Zm-.09,7.07a26.67,26.67,0,0,0-.72,5,17.05,17.05,0,0,0,.37,4.79c.09-.69.17-1.45.24-2.29s.14-1.7.2-2.57a25,25,0,0,0,.07-2.59A19.64,19.64,0,0,0,156.29,15.82Z"/><path class="cls-1" d="M163.9,13.52c.06-.3.29-.5.7-.61a4,4,0,0,1,1.3-.09,4.11,4.11,0,0,1,1.31.36A1.29,1.29,0,0,1,168,14a10.44,10.44,0,0,1,.31,2.7q0,1.53-.09,3.15a10.84,10.84,0,0,1,2-4.16,3.85,3.85,0,0,1,3.6-1.19,6,6,0,0,1,2.65.85A5.22,5.22,0,0,1,178.1,17a6.66,6.66,0,0,1,.83,2.25,11.84,11.84,0,0,1,.18,2.54,18.56,18.56,0,0,1-.27,2.66c-.15.84-.29,1.59-.41,2.27a15.76,15.76,0,0,0-.22,1.69c0,.45,0,.72.22.81s.64.09,1-.25a6.12,6.12,0,0,0,1.14-1.67,22.84,22.84,0,0,0,1.17-2.81,37.81,37.81,0,0,0,1.08-3.73c.06-.3.21-.43.43-.39s.31.22.25.52l-.38,1.62c-.17.69-.38,1.43-.63,2.21s-.56,1.56-.9,2.34a9.19,9.19,0,0,1-1.22,2,4.31,4.31,0,0,1-1.57,1.29,2.73,2.73,0,0,1-2,.09,3.3,3.3,0,0,1-1.8-1.26,5.39,5.39,0,0,1-.86-2.14,14.09,14.09,0,0,1-.2-2.66c0-.94.07-1.88.16-2.81s.11-1.54.16-2.27a12.17,12.17,0,0,0,0-1.94,2.83,2.83,0,0,0-.47-1.37,1.58,1.58,0,0,0-1.19-.63,1.71,1.71,0,0,0-1.53.63A6.42,6.42,0,0,0,170,18a19.82,19.82,0,0,0-.84,2.74c-.24,1-.45,2-.65,3.06s-.39,2-.58,2.88a11.74,11.74,0,0,1-.66,2.16,1.37,1.37,0,0,1-.78.77,3.14,3.14,0,0,1-2.43-.09,1.88,1.88,0,0,1-.84-.72,6.16,6.16,0,0,1-.67-2.64,27.27,27.27,0,0,1,0-3.84c.09-1.41.25-2.89.49-4.44S163.57,14.87,163.9,13.52Zm1.93,1.26c-.24,1.14-.45,2.33-.63,3.56s-.31,2.43-.4,3.6a28,28,0,0,0-.07,3.26,12.82,12.82,0,0,0,.34,2.54c.06-.84.16-1.81.29-2.92s.26-2.26.38-3.45S166,19,166,17.86A14.9,14.9,0,0,0,165.83,14.78ZM176.27,27c.27-1.41.49-2.87.66-4.39a11.7,11.7,0,0,0-.48-4.65,20.51,20.51,0,0,1,0,2.22c0,.74-.1,1.48-.16,2.23s-.1,1.51-.13,2.27A12.09,12.09,0,0,0,176.27,27Z"/><path class="cls-1" d="M197.51,13.7a41.73,41.73,0,0,1,0,6.32,40.44,40.44,0,0,1-1,6.55,16.89,16.89,0,0,0,2.7-2.56,8.32,8.32,0,0,0,1.66-3.24c.06-.3.21-.43.43-.39s.31.22.25.52a8.06,8.06,0,0,1-1.91,3.92,21,21,0,0,1-3.45,3.1,23.56,23.56,0,0,1-2.38,5.74,8.46,8.46,0,0,1-3.6,3.49,2.71,2.71,0,0,1-2,.18,2.85,2.85,0,0,1-1.46-1.06,2.74,2.74,0,0,1-.45-1.76,2.94,2.94,0,0,1,1-1.91,10.38,10.38,0,0,1,1.58-1.26q.94-.63,2.07-1.26.49-2.74.9-5.94a9,9,0,0,1-2.45,3.44,3.78,3.78,0,0,1-3.54.66,4.37,4.37,0,0,1-2.7-1.8,6.19,6.19,0,0,1-1-3.06,8.75,8.75,0,0,1,.52-3.49,9.12,9.12,0,0,1,1.87-3.15,7.49,7.49,0,0,1,3.06-2,7.24,7.24,0,0,1,4.11-.18,3.07,3.07,0,0,1,1.44.77l.41-1.94c.06-.3.3-.5.72-.61a3.77,3.77,0,0,1,1.35-.06,4.36,4.36,0,0,1,1.3.36C197.27,13.21,197.48,13.43,197.51,13.7Zm-9.67,2.61a6.24,6.24,0,0,0-2,2,8.75,8.75,0,0,0-1.1,2.52,7.42,7.42,0,0,0-.23,2.54,4.73,4.73,0,0,0,.65,2.1,6.13,6.13,0,0,1-.09-1.87,12.85,12.85,0,0,1,.43-2.32,17.81,17.81,0,0,1,.92-2.5A16.12,16.12,0,0,1,187.84,16.31Zm1.08,19.49a3.48,3.48,0,0,0,.94-1.58,20.87,20.87,0,0,0,.81-2.92q-.94.59-1.68,1.08a6.33,6.33,0,0,0-1.2,1,2.28,2.28,0,0,0-.72,1.21,1.39,1.39,0,0,0,.16,1,1.14,1.14,0,0,0,.7.49A1.21,1.21,0,0,0,188.92,35.8Zm4-19.53a1.39,1.39,0,0,0-.81-.54,1.79,1.79,0,0,0-1.5.65,7.9,7.9,0,0,0-1.38,1.91,14.92,14.92,0,0,0-1.08,2.59,14.52,14.52,0,0,0-.6,2.68,6.86,6.86,0,0,0,0,2.13q.15.89.78,1c.42.09.84-.14,1.26-.68a9.58,9.58,0,0,0,1.22-2.25,30.84,30.84,0,0,0,1.12-3.4Q192.47,18.43,192.92,16.27Zm2.43-1c-.21,1.05-.4,2.21-.58,3.49s-.36,2.59-.54,3.94-.36,2.69-.54,4-.38,2.58-.59,3.72a32.78,32.78,0,0,0,1.11-3.58A39.39,39.39,0,0,0,195,23c.18-1.31.3-2.61.36-3.92S195.38,16.46,195.35,15.23Z"/></svg>